<?xml version="1.0" standalone="no"?>
<svg xmlns:xlink="http://www.w3.org/1999/xlink" id="wave" style="transform:rotate(0deg); transition: 0.3s" viewBox="0 0 1440 100" version="1.1" xmlns="http://www.w3.org/2000/svg"><defs><linearGradient id="sw-gradient-0" x1="0" x2="0" y1="1" y2="0"><stop stop-color="rgba(255, 255, 255, 1)" offset="0%"/><stop stop-color="rgba(255, 255, 255, 1)" offset="100%"/></linearGradient></defs><path style="transform:translate(0, 0px); opacity:1" fill="url(#sw-gradient-0)" d="M0,0L10,15C20,30,40,60,60,65C80,70,100,50,120,46.7C140,43,160,57,180,58.3C200,60,220,50,240,43.3C260,37,280,33,300,35C320,37,340,43,360,45C380,47,400,43,420,35C440,27,460,13,480,20C500,27,520,53,540,63.3C560,73,580,67,600,63.3C620,60,640,60,660,56.7C680,53,700,47,720,43.3C740,40,760,40,780,46.7C800,53,820,67,840,70C860,73,880,67,900,55C920,43,940,27,960,31.7C980,37,1000,63,1020,65C1040,67,1060,43,1080,36.7C1100,30,1120,40,1140,38.3C1160,37,1180,23,1200,18.3C1220,13,1240,17,1260,23.3C1280,30,1300,40,1320,45C1340,50,1360,50,1380,51.7C1400,53,1420,57,1430,58.3L1440,60L1440,100L1430,100C1420,100,1400,100,1380,100C1360,100,1340,100,1320,100C1300,100,1280,100,1260,100C1240,100,1220,100,1200,100C1180,100,1160,100,1140,100C1120,100,1100,100,1080,100C1060,100,1040,100,1020,100C1000,100,980,100,960,100C940,100,920,100,900,100C880,100,860,100,840,100C820,100,800,100,780,100C760,100,740,100,720,100C700,100,680,100,660,100C640,100,620,100,600,100C580,100,560,100,540,100C520,100,500,100,480,100C460,100,440,100,420,100C400,100,380,100,360,100C340,100,320,100,300,100C280,100,260,100,240,100C220,100,200,100,180,100C160,100,140,100,120,100C100,100,80,100,60,100C40,100,20,100,10,100L0,100Z"/></svg>